<svg width="256" height="256" viewBox="0 0 256 256" fill="none" xmlns="http://www.w3.org/2000/svg">
<g clip-path="url(#clip0_4193_3442)">
<rect width="256" height="256" rx="128" fill="#E6E6E6"/>
<path d="M83.9942 169.993L90.198 123.277L36.3872 85.8371L85.5534 102.529L97.1649 84.6733L139.563 58.3059L233.019 109.91L237.863 188.647L196.227 246.635L163.317 251.689L180.336 220.467V190.409L167.962 166.934L155.388 158.589L136.047 178.572V199.719L120.952 213.884L101.776 216.211L93.2833 221.033L79.3496 216.577L73.5439 195.629L83.9942 180.9V169.993Z" fill="white"/>
<path d="M169.919 85.4381C159.668 83.3101 148.454 83.8753 148.454 83.8753C148.454 83.8753 144.772 100.933 121.947 105.421C122.113 105.421 152.104 115.696 169.919 85.4381Z" fill="#94A6C3"/>
<path d="M179.208 240.218C191.583 230.509 200.872 217.142 205.151 202.013C205.35 201.448 207.076 200.451 208.237 199.686C210.161 198.522 212.118 197.558 212.483 195.995C213.246 191.54 213.644 186.885 213.644 182.23C213.644 180.501 211.886 178.738 210.161 177.009C208.801 175.845 207.441 174.482 207.441 173.518C205.516 155.862 197.388 139.37 184.417 127.367L183.056 128.73C195.63 140.567 203.758 156.66 205.516 173.717C205.715 175.28 207.241 176.81 208.801 178.373C210.161 179.536 211.72 181.299 211.72 182.063C211.72 186.519 211.322 190.974 210.559 195.43C210.36 196.195 208.635 196.993 207.275 197.757C205.35 198.722 203.592 199.686 203.227 201.249C198.583 217.741 187.933 232.105 173.8 241.415C176.322 235.995 184.251 218.339 188.497 209.395L187.734 180.7L163.151 156.86L149.217 158.788L133.923 183.626C133.923 183.626 141.089 192.737 131.004 203.41C121.151 213.884 113.388 216.211 113.388 216.211L106.222 212.321C108.345 209.594 112.625 205.538 115.909 202.811C121.516 198.156 127.122 197.757 127.122 192.737C127.355 182.23 116.108 185.122 116.108 185.122L112.028 189.013L110.302 203.377L101.809 214.05L100.847 213.851L86.9136 210.758C86.9136 210.758 95.4398 206.303 96.8 201.249C98.1602 196.394 94.0796 180.301 93.8805 179.337C94.0796 179.536 97.9611 182.828 99.6862 188.248C102.772 179.703 106.852 171.556 108.013 170.791C109.174 170.027 124.833 161.681 124.833 161.681L119.625 175.446L123.506 173.318L132.795 150.442C132.795 150.442 141.886 145.987 148.653 145.987C160.829 145.787 178.843 130.858 170.715 104.091C173.037 105.056 213.279 125.239 220.246 164.806C225.455 195.23 208.237 223.726 179.208 240.218Z" fill="#94A6C3"/>
<path d="M133.16 89.6941C137.606 84.4406 135.881 76.6933 135.881 76.6933L122.909 95.9119C122.71 95.9119 127.521 96.1114 133.16 89.6941Z" fill="#1B314F"/>
<path d="M89.6009 194.632L91.1601 186.885C91.1601 186.885 84.7572 198.123 84.1932 199.686C83.5961 201.448 84.5913 204.54 87.0795 204.341C89.6009 204.141 92.6862 200.451 92.6862 197.757C92.6862 194.266 89.6009 194.632 89.6009 194.632Z" fill="#1B314F"/>
<path d="M204.554 71.2735C204.554 71.2735 214.242 71.6725 224.294 72.8362C201.635 54.9808 180.17 49.7606 162.753 49.7606C138.767 49.7606 122.511 59.6691 121.516 60.2344L129.08 48.1978C129.08 48.1978 98.89 45.2718 88.2407 77.2918C85.5203 70.5087 83.0321 60.6001 83.0321 60.6001C83.0321 60.6001 67.34 74.399 74.705 97.2752C56.6907 90.6916 30.9796 81.5478 29.9843 81.3815C28.6241 81.182 28.226 81.7805 28.226 81.7805C28.226 81.7805 27.8279 82.3458 28.9891 83.3433C31.1455 85.0391 71.7856 115.131 80.7098 120.949C78.7856 127.932 78.7856 131.224 80.7098 134.515C83.4302 138.971 83.5961 141.298 83.2311 144.59C82.833 147.882 79.3496 176.411 78.5866 179.902C77.8235 183.393 69.6955 195.796 70.0604 199.486C70.4585 203.177 75.4681 218.871 79.9468 220.634C83.2311 221.797 91.3592 224.324 96.7668 224.324C98.691 224.324 100.449 223.925 101.212 223.161C104.497 220.268 105.459 219.669 107.781 219.669C107.98 219.669 108.179 219.669 108.345 219.669C109.307 219.669 110.468 219.869 111.828 219.869C114.914 219.869 118.994 219.27 121.881 216.577C126.127 212.321 133.492 206.502 135.814 203.776C138.734 200.085 140.26 195.064 139.497 190.01C138.9 185.355 141.421 181.265 144.341 177.209C148.023 172.354 154.791 163.643 154.791 163.643C168.161 173.684 176.488 189.013 176.488 206.07C176.488 236.328 150.179 260.767 117.667 260.767C112.625 260.767 107.814 260.201 102.971 259.038C117.866 264.258 130.44 266.02 140.724 266.02C162.587 266.02 174.199 258.073 174.199 258.073C174.199 258.073 170.151 263.327 163.549 269.312C199.744 264.258 217.559 234.399 217.559 234.399C217.559 234.399 216.199 244.108 214.474 250.692C262.612 214.416 254.484 169.029 254.284 167.5C254.683 168.065 259.526 173.884 262.014 177.009C269.777 97.0757 204.554 71.2735 204.554 71.2735ZM130.44 198.921C129.677 199.885 126.393 202.811 124.07 204.939C121.748 207.067 119.227 209.195 117.302 211.157C116.539 211.922 114.98 212.321 112.658 212.321C111.895 212.321 111.099 212.321 110.535 212.321C110.137 212.321 109.772 212.321 109.373 212.321C108.975 212.321 108.776 212.321 108.61 212.321C108.013 212.321 107.449 212.321 106.852 212.321C109.772 208.431 118.265 199.52 121.184 197.591C124.667 195.264 126.426 192.936 124.269 188.88C122.146 184.79 116.539 185.787 116.539 185.787C116.539 185.787 119.824 184.424 122.743 184.424C119.061 183.46 114.416 184.424 112.293 186.552C109.971 188.68 110.369 196.261 109.407 201.082C108.445 206.136 105.16 208.663 100.118 213.319C97.3971 215.846 95.4729 216.61 93.9137 216.61C90.6293 216.045 86.7478 215.048 84.0274 214.083C82.1032 211.556 79.1837 203.21 78.4207 199.719C78.9847 197.791 81.307 193.701 82.4681 191.373C84.7904 186.918 86.1506 184.391 86.5487 182.063C87.3117 178.771 89.8331 158.389 90.7952 149.877C93.3165 153.169 96.7999 158.622 96.0037 162.113C101.61 154.166 97.563 146.386 95.6056 143.294C93.8805 140.201 91.5582 133.983 93.4824 127.4C95.4066 120.816 102.373 102.562 102.373 102.562C102.373 102.562 104.696 106.652 107.98 105.854C111.265 105.089 137.772 65.1222 137.772 65.1222C137.772 65.1222 144.938 80.8163 137.374 92.2876C129.644 103.726 122.08 105.854 122.08 105.854C122.08 105.854 132.729 107.782 142.582 100.6C146.63 110.11 150.511 119.985 150.71 121.348C150.113 122.712 142.383 141.332 141.62 142.495C141.222 142.895 138.535 143.659 136.577 144.058C133.293 145.023 131.369 145.621 130.573 146.186C129.213 147.35 123.009 164.407 120.122 172.753C116.639 173.717 113.156 175.679 110.634 179.536C111.994 178.572 116.241 177.974 119.359 177.608C122.08 177.408 130.374 181.864 132.53 190.21C132.53 190.409 132.53 190.409 132.53 190.609C132.961 193.668 131.999 196.594 130.44 198.921ZM112.26 201.249C114.018 198.722 113.819 194.466 114.018 193.102C114.217 191.739 114.582 189.212 116.141 188.846C117.701 188.447 121.383 189.046 121.383 191.739C121.383 194.266 118.663 194.831 116.738 196.594C115.345 197.924 112.625 200.85 112.26 201.249ZM189.459 164.175C191.384 154.299 191.583 145.754 191.019 138.771C198.549 148.846 203.194 161.082 204.554 173.684C204.753 175.247 206.279 176.777 207.839 178.339C209.199 179.503 210.758 181.066 210.758 182.03C210.758 186.486 210.36 190.941 209.597 195.43C209.398 195.995 207.673 196.993 206.313 197.757C204.388 198.722 202.63 199.686 202.265 201.249C198.019 216.178 188.895 229.378 176.72 238.688C194.701 219.869 203.393 188.813 189.459 164.175ZM177.284 240.417C189.857 230.708 199.545 217.142 203.791 201.814C203.99 201.249 205.715 200.251 206.877 199.486C208.801 198.522 210.758 197.358 211.123 195.796C211.886 191.34 212.284 186.685 212.284 182.03C212.284 180.301 210.526 178.539 208.801 176.81C207.839 175.646 206.279 174.283 206.279 173.318C204.72 159.154 199.113 145.787 190.421 134.715C186.54 111.44 171.08 104.258 170.682 104.058C171.08 104.657 181.132 119.187 174.165 136.244C166.999 153.501 148.62 150.808 147.061 150.974C145.502 150.974 139.53 158.722 131.966 173.086C131.004 172.687 126.923 171.722 122.279 172.52C125.762 162.811 131.004 149.046 131.966 147.882C132.364 147.483 135.25 146.718 137.208 146.153C140.89 145.189 142.615 144.59 143.213 143.826C143.611 143.227 145.535 138.771 147.459 134.116C149.217 134.116 153.663 133.717 154.028 133.518C154.426 133.119 158.108 123.643 158.108 122.479C158.108 121.515 150.544 102.695 147.658 95.5129C149.018 93.9501 150.379 92.0216 151.706 89.8936C191.384 94.1829 222.37 127.932 222.37 168.83C222.37 200.251 203.99 227.616 177.284 240.417Z" fill="#1B314F"/>
<path d="M125.795 135.679C129.478 131.423 127.554 123.476 120.753 122.113C122.511 118.057 124.999 109.91 124.999 109.91C124.999 109.91 105.26 140.933 103.535 141.531C101.776 142.13 100.051 135.313 100.051 135.313C96.3687 149.478 106.255 151.407 107.416 146.951C112.824 145.555 122.113 139.736 125.795 135.679Z" fill="#1B314F"/>
<path d="M108.942 143.227L118.994 125.97C118.994 125.97 124.8 128.896 121.881 133.551C118.231 138.971 108.942 143.227 108.942 143.227Z" fill="#FFD923"/>
<path d="M233.384 223.161C230.464 227.051 227.18 231.107 223.332 234.998C248.28 186.885 224.493 142.861 223.531 141.132C225.289 142.895 227.014 144.823 228.573 146.552C247.716 167.865 250.038 199.885 233.384 223.161Z" fill="#D82122"/>
<path d="M256.607 161.282C247.882 137.807 235.507 117.824 208.237 99.8022C181.929 82.3458 153.663 83.7091 152.104 83.9086C151.905 83.9086 151.706 83.9086 151.706 83.9086C152.668 83.5096 153.63 83.3101 154.592 83.1438C160.597 81.2153 168.327 79.6525 176.09 78.6883C196.625 75.729 217.327 82.7115 231.46 97.6742C231.659 97.8737 231.659 97.8737 231.858 98.0732C247.915 115.131 256.242 136.444 256.607 161.282Z" fill="#D82122"/>
<path d="M202.033 65.2552C173.203 59.8354 154.625 62.5287 141.255 67.5827C140.857 66.0199 139.497 62.9277 138.336 60.4006C134.322 65.2552 130.042 71.074 127.355 74.7647C119.99 79.8188 116.904 84.6733 116.904 84.6733C121.151 70.1097 133.559 59.2701 148.653 56.5436C152.9 55.7789 157.544 55.3798 162.587 55.3798C175.924 55.5793 189.26 58.8711 202.033 65.2552Z" fill="#D82122"/>
<path d="M95.4066 102.495C72.7808 101.731 80.3117 75.33 80.7098 73.8005C80.7098 74 82.2359 94.5486 95.4066 102.495Z" fill="#D82122"/>
<path d="M117.667 54.9808C100.25 65.4547 103.734 90.4589 103.734 90.4589C87.0795 65.0889 116.307 55.5793 117.667 54.9808Z" fill="#D82122"/>
<path d="M89.0369 109.478C90.198 110.442 91.3592 112.205 89.999 114.732C89.2359 116.095 88.0748 115.895 86.3165 115.131C83.9942 113.967 70.0604 105.82 57.4869 97.4747C71.8187 102.529 86.3165 107.948 88.6388 109.112C88.6388 109.112 88.8378 109.312 89.0369 109.478Z" fill="white"/>
</g>
<defs>
<clipPath id="clip0_4193_3442">
<rect width="256" height="256" rx="128" fill="white"/>
</clipPath>
</defs>
</svg>
