<svg width="256" height="256" viewBox="0 0 256 256" fill="none" xmlns="http://www.w3.org/2000/svg">
<path d="M256 128C256 57.2172 198.753 0 128.067 0C57.3816 0 0 57.2172 0 128C0 198.783 57.2472 256 128.067 256C198.887 256 256 198.648 256 128Z" fill="#9391F7"/>
<path d="M104.147 134.178C115.166 132.432 122.557 122.09 120.811 111.077C119.064 100.063 108.716 92.6758 97.6966 94.4218C86.6772 96.1679 79.2861 106.51 81.0331 117.524C82.9144 128.537 93.2619 135.924 104.147 134.178ZM156.825 134.178C167.845 132.432 175.236 122.09 173.489 111.077C171.742 100.063 161.394 92.6758 150.375 94.4218C139.355 96.1679 131.964 106.51 133.711 117.524C135.458 128.537 145.806 135.924 156.825 134.178Z" fill="white"/>
<path d="M127.261 31.2949C72.5669 31.2949 28.2205 76.4239 28.2205 132.029H53.4845C53.4845 90.2581 86.274 56.5456 127.127 56.5456C168.113 56.5456 200.768 90.3924 200.768 132.029H226.033C226.301 76.4239 181.955 31.2949 127.261 31.2949Z" fill="white"/>
</svg>
