<svg width="1024" height="311" viewBox="0 0 1024 311" fill="none" xmlns="http://www.w3.org/2000/svg">
<path d="M159.787 198.148C164.279 198.148 166.188 200.116 165.515 204.053L159.45 246.7C159.225 248.669 158.551 250.09 157.428 250.965C156.53 251.621 154.621 251.949 151.701 251.949H6.14889C3.22887 251.949 1.43193 251.512 0.758082 250.637C0.0842313 249.544 -0.140386 247.903 0.0842313 245.716L6.14889 202.412C6.3735 200.663 6.93504 199.569 7.83351 199.132C8.73198 198.476 10.4166 198.148 12.8874 198.148H44.2214C47.1415 198.148 48.7138 196.507 48.9384 193.227L64.7739 83.6551C64.9985 82.5615 64.8862 81.7961 64.437 81.3586C63.9877 80.9212 62.8646 80.9212 61.0677 81.3586L31.0814 87.9198C25.0167 89.2321 22.3213 87.045 22.9952 81.3586L27.7121 50.193C28.1613 47.3499 28.7229 45.4909 29.3967 44.616C30.0706 43.7412 31.5306 42.757 33.7768 41.6635L98.4664 12.4662C102.285 10.7166 105.317 9.62306 107.563 9.18565C110.034 8.74823 112.842 8.52952 115.987 8.52952H146.647C150.241 8.52952 151.701 10.8259 151.027 15.4188L125.083 195.195C124.859 197.164 125.757 198.148 127.779 198.148H159.787Z" fill="#FDB436"/>
<path d="M285.071 255.319C267.638 255.319 252.297 251.924 239.048 245.133C225.799 238.343 215.339 228.949 207.669 216.953C200.231 204.957 196.512 191.036 196.512 175.192C196.512 161.159 199.301 147.804 204.879 135.129C210.458 122.453 218.129 111.136 227.891 101.177C237.886 90.9913 249.392 83.0691 262.408 77.4105C275.658 71.5255 289.953 68.583 305.294 68.583C322.029 68.583 336.673 71.865 349.225 78.429C362.009 84.9931 371.888 94.3865 378.861 106.609C386.067 118.832 389.67 133.544 389.67 150.747C389.67 153.689 389.553 156.745 389.321 159.914C389.088 163.083 388.74 166.251 388.275 169.42C388.042 171.457 387.345 172.815 386.183 173.495C385.021 173.947 382.929 174.174 379.907 174.174H272.171C269.382 174.174 267.638 175.871 266.941 179.266C266.244 182.662 265.895 185.717 265.895 188.433C265.895 196.129 268.684 201.788 274.263 205.409C279.841 208.805 286.931 210.502 295.531 210.502C302.272 210.502 308.78 209.144 315.056 206.428C321.332 203.712 328.073 198.959 335.278 192.168C336.673 190.81 338.068 190.244 339.462 190.471C341.09 190.471 342.949 190.923 345.041 191.829L374.677 204.391C380.721 206.881 381.65 210.502 377.466 215.255C367.239 226.12 357.477 234.495 348.179 240.38C338.881 246.039 329.119 249.886 318.891 251.924C308.897 254.187 297.623 255.319 285.071 255.319ZM317.497 140.901C319.821 140.901 321.797 139.995 323.424 138.184C325.284 136.147 326.213 133.092 326.213 129.017C326.213 124.491 324.702 119.964 321.681 115.437C318.891 110.683 313.778 108.307 306.34 108.307C301.691 108.307 296.926 109.552 292.045 112.041C287.396 114.531 283.328 118.266 279.841 123.246C276.587 127.999 274.495 133.884 273.566 140.901H317.497Z" fill="#FDFDFD"/>
<path d="M524.895 251.924C522.571 251.924 520.479 251.471 518.619 250.566C516.76 249.66 516.063 247.736 516.527 244.794L517.573 238.343C518.038 236.532 517.69 235.513 516.527 235.287C515.598 234.834 514.203 235.4 512.344 236.985C507.462 240.833 502.465 244.228 497.351 247.17C492.237 249.886 486.891 251.924 481.313 253.282C475.734 254.64 469.575 255.319 462.834 255.319C444.471 255.319 429.827 249.207 418.903 236.985C407.978 224.762 402.515 206.881 402.515 183.341C402.515 167.949 404.607 153.463 408.791 139.882C412.975 126.075 418.903 113.852 426.573 103.214C434.244 92.3493 443.309 83.8614 453.769 77.75C464.228 71.6387 475.734 68.583 488.286 68.583C496.886 68.583 504.324 70.1674 510.6 73.3362C517.109 76.5051 523.152 81.7111 528.731 88.9541C530.358 90.9913 532.101 91.8966 533.96 91.6703C536.052 91.2176 537.563 87.8224 538.493 81.4847L549.65 6.11136C550.115 3.62155 551.045 2.03713 552.439 1.35808C553.834 0.452694 555.577 0 557.669 0H614.152C617.871 0 619.266 3.28202 618.336 9.84606L584.168 244.454C583.935 247.397 583.005 249.434 581.378 250.566C579.984 251.471 577.427 251.924 573.708 251.924H524.895ZM533.263 122.227C530.241 117.926 527.103 114.984 523.849 113.4C520.828 111.589 516.992 110.683 512.344 110.683C503.976 110.683 497.119 113.4 491.773 118.832C486.659 124.264 482.591 131.168 479.569 139.543C476.78 147.691 474.804 156.066 473.642 164.667C472.48 173.268 471.899 180.738 471.899 187.075C471.899 193.866 472.596 199.298 473.991 203.372C475.618 207.447 477.942 210.389 480.964 212.2C483.986 213.784 487.589 214.576 491.773 214.576C496.886 214.576 501.651 213.445 506.068 211.181C510.484 208.918 514.203 205.975 517.225 202.354C520.247 198.506 521.99 194.432 522.455 190.131L533.263 122.227Z" fill="#FDFDFD"/>
<path d="M688.839 311C659.784 311 636.54 307.718 619.107 301.154C601.907 294.59 593.306 285.083 593.306 272.634C593.306 264.033 597.142 257.243 604.812 252.263C612.25 247.51 620.618 243.888 629.916 241.398C632.705 240.493 634.216 239.475 634.448 238.343C634.913 236.985 633.867 235.853 631.31 234.948C625.499 232.91 620.967 230.081 617.713 226.46C614.691 222.612 613.18 217.406 613.18 210.842C613.18 204.278 615.272 198.619 619.456 193.866C623.872 189.112 629.218 185.038 635.494 181.643C642.003 178.248 648.162 175.645 653.973 173.834C656.995 172.702 658.738 171.684 659.203 170.778C659.9 169.647 658.971 168.628 656.414 167.723C647.814 164.78 640.957 160.027 635.843 153.463C630.729 146.672 628.172 138.637 628.172 129.357C628.172 118.492 630.729 109.325 635.843 101.856C641.189 94.1601 648.278 87.9356 657.111 83.1823C665.944 78.2027 675.706 74.6943 686.399 72.6572C697.323 70.3937 708.364 69.262 719.521 69.262C737.419 69.262 751.366 71.0728 761.361 74.6943C771.356 78.3159 778.794 82.3901 783.675 86.917C785.534 88.5014 787.626 88.3883 789.951 86.5775C792.508 84.5404 794.716 82.3901 796.575 80.1266C800.294 75.8261 804.711 72.3177 809.824 69.6015C815.171 66.8854 820.284 64.8483 825.166 63.4902C830.279 61.9057 834.231 61.1135 837.02 61.1135C839.577 61.1135 841.669 61.5662 843.296 62.4716C844.923 63.1507 845.504 65.0746 845.039 68.2435L840.855 98.8002C840.39 102.648 839.577 105.138 838.415 106.27C837.252 107.175 835.625 107.515 833.533 107.288C830.512 107.062 827.025 106.949 823.074 106.949C819.122 106.722 816.449 106.609 815.054 106.609C806.686 106.609 803.781 109.439 806.338 115.097C806.803 116.003 807.035 117.247 807.035 118.832C807.268 120.416 807.384 122.114 807.384 123.925C807.384 134.563 804.362 143.504 798.319 150.747C792.275 157.99 784.372 163.875 774.61 168.402C765.08 172.702 754.852 175.871 743.928 177.908C733.003 179.945 722.659 180.964 712.897 180.964C711.27 180.964 708.48 181.077 704.529 181.303C700.81 181.53 696.742 182.096 692.326 183.001C687.909 183.68 684.074 184.812 680.82 186.396C677.798 187.981 676.288 190.131 676.288 192.847C676.288 194.432 677.333 195.45 679.425 195.903C681.517 196.356 684.772 196.808 689.188 197.261L741.836 200.317C765.777 201.675 783.21 206.767 794.135 215.595C805.059 224.196 810.522 235.513 810.522 249.547C810.522 259.733 807.965 268.447 802.851 275.69C797.738 282.933 790.881 288.818 782.28 293.345C773.912 297.872 764.382 301.38 753.69 303.87C743.23 306.586 732.306 308.397 720.916 309.302C709.759 310.434 699.067 311 688.839 311ZM693.023 281.122C702.786 281.122 711.153 280.556 718.127 279.425C725.332 278.293 731.143 276.822 735.56 275.011C739.976 273.2 743.23 271.05 745.322 268.56C747.647 266.07 748.809 263.467 748.809 260.751C748.809 257.582 747.298 255.206 744.276 253.621C741.255 252.263 736.025 251.471 728.587 251.245L678.379 248.868C675.59 248.868 671.987 249.434 667.571 250.566C663.155 251.697 659.203 253.395 655.717 255.658C652.23 258.148 650.487 261.43 650.487 265.504C650.487 270.258 653.625 273.992 659.9 276.709C666.409 279.651 677.45 281.122 693.023 281.122ZM714.291 150.068C720.102 150.068 725.332 148.823 729.981 146.333C734.63 143.617 738.349 139.995 741.138 135.468C743.928 130.715 745.322 125.396 745.322 119.511C745.322 114.079 743.114 109.665 738.698 106.27C734.514 102.648 728.238 100.837 719.87 100.837C714.291 100.837 709.178 102.309 704.529 105.251C699.88 108.194 696.161 112.041 693.372 116.795C690.583 121.548 689.188 126.754 689.188 132.413C689.188 137.166 691.512 141.353 696.161 144.975C700.81 148.37 706.853 150.068 714.291 150.068Z" fill="#FDFDFD"/>
<path d="M919.402 255.319C901.969 255.319 886.628 251.924 873.379 245.133C860.13 238.343 849.67 228.949 841.999 216.953C834.561 204.957 830.842 191.036 830.842 175.192C830.842 161.159 833.631 147.804 839.21 135.129C844.789 122.453 852.459 111.136 862.222 101.177C872.216 90.9913 883.722 83.0691 896.739 77.4105C909.988 71.5255 924.283 68.583 939.624 68.583C956.36 68.583 971.004 71.865 983.555 78.429C996.34 84.9931 1006.22 94.3865 1013.19 106.609C1020.4 118.832 1024 133.544 1024 150.747C1024 153.689 1023.88 156.745 1023.65 159.914C1023.42 163.083 1023.07 166.251 1022.61 169.42C1022.37 171.457 1021.68 172.815 1020.51 173.495C1019.35 173.947 1017.26 174.174 1014.24 174.174H906.501C903.712 174.174 901.969 175.871 901.272 179.266C900.574 182.662 900.226 185.717 900.226 188.433C900.226 196.129 903.015 201.788 908.593 205.409C914.172 208.805 921.261 210.502 929.862 210.502C936.603 210.502 943.111 209.144 949.387 206.428C955.663 203.712 962.403 198.959 969.609 192.168C971.004 190.81 972.398 190.244 973.793 190.471C975.42 190.471 977.28 190.923 979.372 191.829L1009.01 204.391C1015.05 206.881 1015.98 210.502 1011.8 215.255C1001.57 226.12 991.807 234.495 982.509 240.38C973.212 246.039 963.449 249.886 953.222 251.924C943.227 254.187 931.954 255.319 919.402 255.319ZM951.827 140.901C954.152 140.901 956.127 139.995 957.755 138.184C959.614 136.147 960.544 133.092 960.544 129.017C960.544 124.491 959.033 119.964 956.011 115.437C953.222 110.683 948.108 108.307 940.67 108.307C936.021 108.307 931.256 109.552 926.375 112.041C921.726 114.531 917.659 118.266 914.172 123.246C910.918 127.999 908.826 133.884 907.896 140.901H951.827Z" fill="#FDFDFD"/>
</svg>
