<svg width="124" height="124" viewBox="0 0 124 124" fill="none" xmlns="http://www.w3.org/2000/svg">
<path d="M95.4177 92.3504C97.3975 92.3504 98.2389 93.2156 97.9419 94.9461L95.2692 113.693C95.1702 114.558 94.8733 115.183 94.3783 115.567C93.9824 115.856 93.141 116 91.8541 116H27.7098C26.423 116 25.631 115.808 25.3341 115.423C25.0371 114.942 24.9381 114.221 25.0371 113.26L27.7098 94.2251C27.8088 93.456 28.0563 92.9753 28.4522 92.783C28.8482 92.4946 29.5906 92.3504 30.6794 92.3504H44.4883C45.7751 92.3504 46.4681 91.6294 46.567 90.1873L53.5457 42.0229C53.6447 41.5422 53.5952 41.2058 53.3972 41.0135C53.1993 40.8212 52.7043 40.8212 51.9124 41.0135L38.6975 43.8976C36.0248 44.4744 34.8369 43.513 35.1339 41.0135L37.2127 27.314C37.4106 26.0642 37.6581 25.2471 37.9551 24.8625C38.252 24.478 38.8955 24.0454 39.8853 23.5647L68.3939 10.7305C70.0767 9.96137 71.4131 9.48069 72.403 9.28841C73.4918 9.09614 74.7292 9 76.115 9H89.6269C91.2107 9 91.8541 10.0094 91.5572 12.0283L80.124 91.0526C80.025 91.9178 80.421 92.3504 81.3119 92.3504H95.4177Z" fill="#FDB436"/>
</svg>
